<svg width="120" height="120" viewBox="0 0 120 120" fill="none" xmlns="http://www.w3.org/2000/svg" class="FeatureIconText_feature-icon-text__icon__1HB0U"><path fill-rule="evenodd" clip-rule="evenodd" d="M18.3335 21.6665C15.5721 21.6665 13.3335 23.9051 13.3335 26.6665V79.9998C13.3335 82.7613 15.5721 84.9998 18.3335 84.9998H101.667C104.428 84.9998 106.667 82.7613 106.667 79.9998V26.6665C106.667 23.9051 104.428 21.6665 101.667 21.6665H18.3335ZM16.6668 26.6665C16.6668 25.746 17.413 24.9998 18.3335 24.9998H101.667C102.587 24.9998 103.333 25.746 103.333 26.6665V79.9998C103.333 80.9203 102.587 81.6665 101.667 81.6665H18.3335C17.413 81.6665 16.6668 80.9203 16.6668 79.9998V26.6665Z" fill="white"></path><path d="M61.6668 89.9998C61.6668 89.0794 60.9206 88.3332 60.0002 88.3332C59.0797 88.3332 58.3335 89.0794 58.3335 89.9998V98.3332H40.0002C39.0797 98.3332 38.3335 99.0794 38.3335 99.9998C38.3335 100.92 39.0797 101.667 40.0002 101.667H80.0002C80.9206 101.667 81.6668 100.92 81.6668 99.9998C81.6668 99.0794 80.9206 98.3332 80.0002 98.3332H61.6668V89.9998Z" fill="white"></path><g opacity="0.3"><mask id="mask0_1719_158991" style="mask-type: alpha;" maskUnits="userSpaceOnUse" x="16" y="23" width="45" height="61"><path d="M16.667 23.333H60.0003V83.333H16.667V23.333Z" fill="#D9D9D9"></path></mask><g mask="url(#mask0_1719_158991)"><path fill-rule="evenodd" clip-rule="evenodd" d="M80.5642 51.1436C81.9021 49.1692 84.8202 49.1978 86.1192 51.198L104.726 79.8501C106.166 82.0677 104.575 84.9989 101.931 84.9989H27.7857C25.2657 84.9989 23.6571 82.3104 24.8484 80.0898L36.2276 58.8785C37.4653 56.5714 40.7577 56.5263 42.0581 58.7988L47.0054 67.4443L55.5958 58.7707C56.8823 57.4717 58.9752 57.4515 60.2866 58.7253L69.4167 67.5938L80.5642 51.1436ZM67.5177 70.3962L66.0442 68.9649L63.169 67.7986L62.4952 68.6359C61.1144 70.3517 58.4782 70.2777 57.1957 68.4878L55.3379 68.8125C54.2449 69.0035 53.1285 68.6381 52.3599 67.8378L51.8416 67.2982L48.7234 70.4466L55.1432 81.6656H59.8811L67.5177 70.3962ZM63.9077 81.6656H101.931L92.6726 67.4096C91.3425 68.4359 89.3579 68.338 88.1517 66.989L86.5204 65.1645L85.8693 66.3782C84.4418 69.0391 80.4947 68.5826 79.7124 65.666L79.6381 65.3889L78.8194 66.1519C77.7321 67.1652 76.1054 67.3363 74.8311 66.5714L74.3371 66.2749L63.9077 81.6656ZM76.2099 63.5113L76.5467 63.7135L77.3654 62.9504C79.2043 61.2365 82.2063 62.0973 82.8576 64.5253L82.9319 64.8024L83.5831 63.5887C84.6767 61.5502 87.4634 61.2182 89.0053 62.9427L90.6366 64.7672L90.7925 64.5145L83.3236 53.0135L76.2099 63.5113ZM51.3027 81.6656L44.69 70.1097L43.2078 71.3656C41.9187 72.4578 40.0163 72.4128 38.7803 71.2608L36.9518 69.5567L33.2805 71.4231L27.7857 81.6656H51.3027ZM35.9948 66.3635C37.1146 66.0276 38.348 66.3013 39.2245 67.1182L41.053 68.8224L43.0063 67.1673L39.1649 60.4543L35.9948 66.3635ZM54.188 64.9291L54.764 65.5289L56.6246 65.2038C57.8834 64.9838 59.1569 65.5038 59.9019 66.5416L61.5021 64.553L57.9641 61.1164L54.188 64.9291Z" fill="white"></path><path fill-rule="evenodd" clip-rule="evenodd" d="M31.4813 43.2466C32.815 42.8893 33.6065 41.5184 33.2491 40.1848C32.8917 38.8511 31.5209 38.0597 30.1872 38.417C28.8536 38.7744 28.0621 40.1452 28.4195 41.4789C28.7768 42.8125 30.1477 43.604 31.4813 43.2466ZM32.3441 46.4664C35.4559 45.6326 37.3027 42.4339 36.4689 39.322C35.635 36.2102 32.4364 34.3634 29.3245 35.1973C26.2126 36.0311 24.3659 39.2297 25.1997 42.3416C26.0335 45.4535 29.2322 47.3002 32.3441 46.4664Z" fill="white"></path><path fill-rule="evenodd" clip-rule="evenodd" d="M20.2053 34.6953C20.6655 33.8981 21.6848 33.625 22.482 34.0852L24.5232 35.2637C25.3204 35.724 25.5935 36.7433 25.1333 37.5405C24.673 38.3376 23.6537 38.6107 22.8566 38.1505L20.8153 36.972C20.0182 36.5117 19.7451 35.4924 20.2053 34.6953Z" fill="white"></path><path fill-rule="evenodd" clip-rule="evenodd" d="M36.5354 44.1235C36.9956 43.3263 38.0149 43.0532 38.8121 43.5135L40.8533 44.692C41.6505 45.1522 41.9236 46.1715 41.4634 46.9687C41.0031 47.7658 39.9838 48.039 39.1866 47.5787L37.1454 46.4002C36.3483 45.94 36.0751 44.9207 36.5354 44.1235Z" fill="white"></path><path fill-rule="evenodd" clip-rule="evenodd" d="M18.9793 44.0083C18.7411 43.1192 19.2687 42.2053 20.1578 41.9671L22.4346 41.3571C23.3237 41.1188 24.2376 41.6465 24.4758 42.5356C24.714 43.4247 24.1864 44.3386 23.2973 44.5768L21.0206 45.1868C20.1315 45.4251 19.2176 44.8974 18.9793 44.0083Z" fill="white"></path><path fill-rule="evenodd" clip-rule="evenodd" d="M37.1932 39.128C36.955 38.2389 37.4826 37.325 38.3717 37.0867L40.6484 36.4767C41.5375 36.2384 42.4514 36.7661 42.6897 37.6552C42.9279 38.5443 42.4003 39.4582 41.5112 39.6964L39.2344 40.3065C38.3453 40.5447 37.4314 40.0171 37.1932 39.128Z" fill="white"></path><path fill-rule="evenodd" clip-rule="evenodd" d="M24.6977 51.4612C23.9006 51.001 23.6274 49.9817 24.0877 49.1845L25.2662 47.1433C25.7264 46.3461 26.7457 46.073 27.5429 46.5332C28.34 46.9935 28.6132 48.0128 28.1529 48.8099L26.9744 50.8512C26.5142 51.6483 25.4949 51.9215 24.6977 51.4612Z" fill="white"></path><path fill-rule="evenodd" clip-rule="evenodd" d="M34.1259 35.1311C33.3288 34.6709 33.0557 33.6516 33.5159 32.8544L34.6944 30.8132C35.1546 30.016 36.174 29.7429 36.9711 30.2031C37.7683 30.6634 38.0414 31.6827 37.5812 32.4799L36.4026 34.5211C35.9424 35.3183 34.9231 35.5914 34.1259 35.1311Z" fill="white"></path><path fill-rule="evenodd" clip-rule="evenodd" d="M34.0108 52.6867C33.1217 52.9249 32.2078 52.3973 31.9695 51.5082L31.3595 49.2315C31.1213 48.3424 31.6489 47.4285 32.538 47.1902C33.4271 46.952 34.341 47.4796 34.5792 48.3687L35.1893 50.6454C35.4275 51.5346 34.8999 52.4484 34.0108 52.6867Z" fill="white"></path><path fill-rule="evenodd" clip-rule="evenodd" d="M29.1304 34.4728C28.2413 34.7111 27.3274 34.1834 27.0892 33.2943L26.4791 31.0176C26.2409 30.1285 26.7685 29.2146 27.6576 28.9764C28.5467 28.7381 29.4606 29.2658 29.6989 30.1549L30.3089 32.4316C30.5472 33.3207 30.0195 34.2346 29.1304 34.4728Z" fill="white"></path></g></g><mask id="mask1_1719_158991" style="mask-type: alpha;" maskUnits="userSpaceOnUse" x="60" y="21" width="44" height="64"><path d="M103.333 21.6665H60.0002V84.9998H103.333V21.6665Z" fill="#D9D9D9"></path></mask><g mask="url(#mask1_1719_158991)"><path fill-rule="evenodd" clip-rule="evenodd" d="M80.5637 51.1441C81.9016 49.1697 84.8197 49.1983 86.1187 51.1985L104.726 79.8506C106.166 82.0682 104.574 84.9994 101.93 84.9994H27.7852C25.2653 84.9994 23.6566 82.3109 24.8479 80.0903L36.2271 58.879C37.4648 56.5719 40.7572 56.5268 42.0576 58.7993L47.0049 67.4448L55.5953 58.7712C56.8818 57.4722 58.9747 57.4519 60.2861 58.7258L69.4163 67.5943L80.5637 51.1441ZM67.5172 70.3967L66.0437 68.9654L63.1685 67.7991L62.4947 68.6363C61.1139 70.3522 58.4777 70.2782 57.1952 68.4883L55.3374 68.813C54.2444 69.004 53.128 68.6386 52.3594 67.8383L51.8411 67.2987L48.7229 70.4471L55.1428 81.666H59.8806L67.5172 70.3967ZM63.9072 81.666H101.93L92.6721 67.4101C91.342 68.4364 89.3574 68.3385 88.1512 66.9895L86.5199 65.165L85.8688 66.3787C84.4413 69.0396 80.4942 68.583 79.7119 65.6665L79.6376 65.3894L78.8189 66.1524C77.7317 67.1657 76.1049 67.3368 74.8306 66.5719L74.3366 66.2754L63.9072 81.666ZM76.2094 63.5118L76.5462 63.714L77.3649 62.9509C79.2038 61.237 82.2059 62.0978 82.8571 64.5258L82.9315 64.8029L83.5826 63.5892C84.6762 61.5507 87.4629 61.2187 89.0048 62.9432L90.6361 64.7677L90.792 64.515L83.3231 53.014L76.2094 63.5118ZM51.3022 81.666L44.6896 70.1102L43.2073 71.3661C41.9182 72.4583 40.0158 72.4133 38.7798 71.2613L36.9513 69.5571L33.28 71.4235L27.7852 81.666H51.3022ZM35.9943 66.364C37.1141 66.0281 38.3475 66.3018 39.224 67.1187L41.0525 68.8229L43.0058 67.1678L39.1644 60.4548L35.9943 66.364ZM54.1875 64.9296L54.7636 65.5294L56.6241 65.2042C57.8829 64.9843 59.1564 65.5043 59.9014 66.5421L61.5016 64.5535L57.9636 61.1169L54.1875 64.9296Z" fill="white"></path></g><path fill-rule="evenodd" clip-rule="evenodd" d="M60.0002 21.6665C60.9206 21.6665 61.6668 22.4127 61.6668 23.3332V25.0475C61.6668 25.9679 60.9206 26.7141 60.0002 26.7141C59.0797 26.7141 58.3335 25.9679 58.3335 25.0475V23.3332C58.3335 22.4127 59.0797 21.6665 60.0002 21.6665ZM60.0002 28.5236C60.9206 28.5236 61.6668 29.2698 61.6668 30.1903V33.6189C61.6668 34.5394 60.9206 35.2856 60.0002 35.2856C59.0797 35.2856 58.3335 34.5394 58.3335 33.6189V30.1903C58.3335 29.2698 59.0797 28.5236 60.0002 28.5236ZM60.0002 37.0951C60.9206 37.0951 61.6668 37.8413 61.6668 38.7617V42.1903C61.6668 43.1108 60.9206 43.857 60.0002 43.857C59.0797 43.857 58.3335 43.1108 58.3335 42.1903V38.7617C58.3335 37.8413 59.0797 37.0951 60.0002 37.0951ZM60.0002 45.6665C60.9206 45.6665 61.6668 46.4127 61.6668 47.3332V50.7617C61.6668 51.6822 60.9206 52.4284 60.0002 52.4284C59.0797 52.4284 58.3335 51.6822 58.3335 50.7617V47.3332C58.3335 46.4127 59.0797 45.6665 60.0002 45.6665ZM60.0002 54.2379C60.9206 54.2379 61.6668 54.9841 61.6668 55.9046V59.3332C61.6668 60.2536 60.9206 60.9998 60.0002 60.9998C59.0797 60.9998 58.3335 60.2536 58.3335 59.3332V55.9046C58.3335 54.9841 59.0797 54.2379 60.0002 54.2379ZM60.0002 62.8094C60.9206 62.8094 61.6668 63.5556 61.6668 64.476V67.9046C61.6668 68.8251 60.9206 69.5713 60.0002 69.5713C59.0797 69.5713 58.3335 68.8251 58.3335 67.9046V64.476C58.3335 63.5556 59.0797 62.8094 60.0002 62.8094ZM60.0002 71.3808C60.9206 71.3808 61.6668 72.127 61.6668 73.0475V76.476C61.6668 77.3965 60.9206 78.1427 60.0002 78.1427C59.0797 78.1427 58.3335 77.3965 58.3335 76.476V73.0475C58.3335 72.127 59.0797 71.3808 60.0002 71.3808ZM60.0002 79.9522C60.9206 79.9522 61.6668 80.6984 61.6668 81.6189V83.3332C61.6668 84.2536 60.9206 84.9998 60.0002 84.9998C59.0797 84.9998 58.3335 84.2536 58.3335 83.3332V81.6189C58.3335 80.6984 59.0797 79.9522 60.0002 79.9522Z" fill="white"></path></svg>
