<svg data-testid="plug-and-play-large-icon" width="120" height="120" viewBox="0 0 120 120" fill="none" xmlns="http://www.w3.org/2000/svg" class="FeatureIconText_feature-icon-text__icon__1HB0U"><path d="M46.6667 18.3334C46.6667 15.572 48.9052 13.3334 51.6667 13.3334H68.3333C71.0948 13.3334 73.3333 15.572 73.3333 18.3334V25C73.3333 25.9205 72.5871 26.6667 71.6667 26.6667C70.7462 26.6667 70 25.9205 70 25V18.3334C70 17.4129 69.2538 16.6667 68.3333 16.6667H51.6667C50.7462 16.6667 50 17.4129 50 18.3334V25C50 25.9205 49.2538 26.6667 48.3333 26.6667C47.4129 26.6667 46.6667 25.9205 46.6667 25V18.3334Z" fill="white"></path><path fill-rule="evenodd" clip-rule="evenodd" d="M55.1214 63.75L68.3333 56.3134L68.3328 52.4348L61.9402 48.8446L61.904 48.814L55.1129 45L51.6667 46.9592V61.8098L55.1214 63.75ZM55.1229 48.8287L59.9951 51.565L60.0313 51.5956L64.9808 54.3754L55.1195 59.926L55 59.8588V48.8985L55.1229 48.8287Z" fill="white"></path><path fill-rule="evenodd" clip-rule="evenodd" d="M40 35C40 32.2386 42.2386 30 45 30H75C77.7614 30 80 32.2386 80 35V73.3334C80 77.9357 76.269 81.6667 71.6667 81.6667H48.3333C43.731 81.6667 40 77.9358 40 73.3334V35ZM45 33.3334C44.0795 33.3334 43.3333 34.0796 43.3333 35V73.3334C43.3333 76.0948 45.5719 78.3334 48.3333 78.3334H71.6667C74.4281 78.3334 76.6667 76.0948 76.6667 73.3334V35C76.6667 34.0796 75.9205 33.3334 75 33.3334H45Z" fill="white"></path><path d="M61.6667 101.667C64.4281 101.667 66.6667 99.4281 66.6667 96.6667V86.6667C66.6667 85.7462 65.9205 85 65 85C64.0795 85 63.3333 85.7462 63.3333 86.6667L63.3333 96.6667C63.3333 97.5872 62.5871 98.3334 61.6667 98.3334H58.3333C57.4129 98.3334 56.6667 97.5872 56.6667 96.6667V86.6667C56.6667 85.7462 55.9205 85 55 85C54.0795 85 53.3333 85.7462 53.3333 86.6667L53.3333 96.6667C53.3333 99.4281 55.5719 101.667 58.3333 101.667V108.333C58.3333 109.254 59.0795 110 60 110C60.9205 110 61.6667 109.254 61.6667 108.333V101.667Z" fill="white"></path></svg>
