<svg width="120" height="120" viewBox="0 0 120 120" fill="none" xmlns="http://www.w3.org/2000/svg" class="FeatureIconText_feature-icon-text__icon__1HB0U"><path fill-rule="evenodd" clip-rule="evenodd" d="M18.332 25C15.5706 25 13.332 27.2386 13.332 30V76.6667C13.332 79.4281 15.5706 81.6667 18.332 81.6667H101.665C104.427 81.6667 106.665 79.4281 106.665 76.6667V30C106.665 27.2386 104.427 25 101.665 25H18.332ZM16.6654 30C16.6654 29.0795 17.4116 28.3333 18.332 28.3333H101.665C102.586 28.3333 103.332 29.0795 103.332 30V76.6667C103.332 77.5871 102.586 78.3333 101.665 78.3333H18.332C17.4116 78.3333 16.6654 77.5871 16.6654 76.6667V30Z" fill="white"></path><path d="M61.6654 86.6667C61.6654 85.7462 60.9192 85 59.9987 85C59.0782 85 58.332 85.7462 58.332 86.6667V98.3333H39.9987C39.0782 98.3333 38.332 99.0795 38.332 100C38.332 100.92 39.0782 101.667 39.9987 101.667H79.9987C80.9192 101.667 81.6654 100.92 81.6654 100C81.6654 99.0795 80.9192 98.3333 79.9987 98.3333H61.6654V86.6667Z" fill="white"></path><path fill-rule="evenodd" clip-rule="evenodd" d="M91.6654 35H26.6654V71.6666H91.6654V35ZM26.6654 31.6666C24.8244 31.6666 23.332 33.159 23.332 35V71.6666C23.332 73.5076 24.8244 75 26.6654 75H91.6654C93.5063 75 94.9987 73.5076 94.9987 71.6666V35C94.9987 33.159 93.5063 31.6666 91.6654 31.6666H26.6654Z" fill="white"></path><path fill-rule="evenodd" clip-rule="evenodd" d="M95 48.3333H25V45H95V48.3333Z" fill="white"></path><ellipse cx="86.6667" cy="39.9999" rx="1.66666" ry="1.66667" fill="white"></ellipse><circle cx="81.6667" cy="39.9999" r="1.66667" fill="white"></circle><circle cx="76.6667" cy="39.9999" r="1.66667" fill="white"></circle></svg>
