<svg width="120" height="122" viewBox="0 0 120 122" fill="none" xmlns="http://www.w3.org/2000/svg" class="FeatureIconText_feature-icon-text__icon__1HB0U"><path d="M66.3768 46.2687C63.3313 45.0072 59.9802 44.6772 56.7472 45.3203C53.5142 45.9633 50.5445 47.5507 48.2136 49.8816C45.8827 52.2124 44.2954 55.1822 43.6523 58.4152C43.0092 61.6482 43.3393 64.9993 44.6007 68.0447C45.8622 71.0902 47.9984 73.6931 50.7392 75.5245C53.48 77.3559 56.7024 78.3333 59.9987 78.3333C60.9192 78.3333 61.6654 79.0795 61.6654 80C61.6654 80.9205 60.9192 81.6667 59.9987 81.6667C56.0431 81.6667 52.1763 80.4937 48.8873 78.2961C45.5983 76.0984 43.0349 72.9749 41.5211 69.3203C40.0074 65.6658 39.6113 61.6445 40.383 57.7649C41.1547 53.8852 43.0595 50.3216 45.8566 47.5245C48.6536 44.7275 52.2173 42.8227 56.0969 42.051C59.9765 41.2793 63.9979 41.6753 67.6524 43.1891C71.3069 44.7028 74.4305 47.2663 76.6281 50.5553C78.6998 53.6558 79.861 57.2699 79.9872 60.9878L83.8202 57.1548C84.4711 56.5039 85.5263 56.5039 86.1772 57.1548C86.8281 57.8057 86.8281 58.861 86.1772 59.5118L79.5105 66.1785C78.8597 66.8294 77.8044 66.8294 77.1535 66.1785L70.4869 59.5118C69.836 58.861 69.836 57.8057 70.4869 57.1548C71.1377 56.5039 72.193 56.5039 72.8439 57.1548L76.6505 60.9614C76.5213 57.9123 75.557 54.9522 73.8565 52.4072C72.0252 49.6664 69.4222 47.5301 66.3768 46.2687Z" fill="white"></path><path fill-rule="evenodd" clip-rule="evenodd" d="M13.332 61.6667C13.332 35.8934 34.2254 15 59.9987 15C85.772 15 106.665 35.8934 106.665 61.6667C106.665 87.44 85.772 108.333 59.9987 108.333C34.2254 108.333 13.332 87.44 13.332 61.6667ZM59.9987 18.3333C36.0664 18.3333 16.6654 37.7343 16.6654 61.6667C16.6654 85.599 36.0664 105 59.9987 105C83.931 105 103.332 85.599 103.332 61.6667C103.332 37.7343 83.931 18.3333 59.9987 18.3333Z" fill="white"></path></svg>
